<svg width="120" height="103" viewBox="0 0 120 103" fill="none" xmlns="http://www.w3.org/2000/svg">
<path d="M115.799 71.0152C106.423 85.1896 84.1022 86.8617 84.1022 86.8617C60.334 101.915 38.9414 93.2009 38.9414 93.2009C32.3797 96.9235 24.6395 96.9722 19.7051 94.6714C18.8138 94.2567 18.0122 93.764 17.3263 93.2009C15.5886 91.7752 14.2818 90.1564 13.3126 88.4349C8.0125 79.0427 12.7905 66.6562 12.7905 66.6562L9.49142 62.1651C9.49142 62.1651 0.904652 55.961 1.6976 47.6416C2.49054 39.3221 16.0937 34.6549 16.0937 34.6549C20.1445 -5.66653 52.0145 2.87152 52.0145 2.87152C68.2557 -1.48361 77.7668 7.23051 77.7668 7.23051C101.534 8.81609 108.667 29.0216 108.667 29.0216C108.934 29.0834 109.197 29.1699 109.451 29.2811C113.137 30.8628 115.294 37.2639 115.434 42.0662V42.0747C115.45 42.6338 115.442 43.1714 115.401 43.6772C115.397 43.7097 115.397 43.7429 115.397 43.7753C115.191 47.2554 118.166 54.1044 118.346 61.0229C118.35 61.0476 118.35 61.0723 118.346 61.097C118.429 64.5238 117.82 67.9622 115.799 71.0152Z" fill="#FFB375"/>
<path d="M18.7366 23.5513C18.776 22.2013 19.4008 20.9455 20.0125 19.7407C21.578 16.656 23.1558 13.5528 25.2419 10.7933C27.3287 8.03382 29.9739 5.60872 33.1736 4.29346C37.9103 2.34488 43.2648 3.00754 48.3398 3.70263C41.6236 5.78636 36.1579 10.5871 30.7694 15.106C27.0653 18.2115 23.2979 21.2406 19.4695 24.1908C19.2533 24.3577 18.9127 24.5137 18.7428 24.2997L18.7366 23.5513Z" fill="#994E31"/>
<path d="M93.9856 42.5521C96.4926 39.6088 96.2416 34.9656 98.8883 32.1474C99.9132 31.0553 101.288 30.3486 102.705 29.8659C105.765 28.8233 109.483 28.8789 111.862 31.0692C114.535 33.5299 114.612 37.6278 114.828 41.2554C115.024 44.5795 115.498 47.8881 116.241 51.1342C116.795 53.5523 117.498 55.9419 117.857 58.3971C118.383 62.0093 118.142 65.7311 117.156 69.246C116.801 70.5133 116.342 71.7684 115.597 72.8535C114.295 74.7457 112.244 75.959 110.254 77.1044C103.551 80.9621 96.6316 84.7836 89.018 86.1444C84.8398 86.8912 79.9432 86.6232 77.1729 83.4073C75.5526 81.5267 74.9672 78.9201 75.117 76.4425C75.266 73.9656 76.0832 71.5799 76.9922 69.2699C78.3662 65.7805 79.9757 62.3684 82.0432 59.239C85.9172 53.3747 91.3898 48.4967 94.0721 42.0015L93.9856 42.5521Z" fill="#994E31"/>
<path d="M104.868 29.3376C103.284 26.4229 100.34 22.0222 95.5233 18.2293C95.4948 18.4587 95.433 18.6811 95.3349 18.8904C94.8298 19.964 93.506 20.5162 91.8293 20.5162C90.4646 20.5162 88.8651 20.1509 87.2819 19.404C83.7524 17.7404 81.637 14.8149 82.553 12.8671C82.7051 12.5473 82.9268 12.2755 83.2102 12.05C80.8523 11.4051 78.2805 10.961 75.4785 10.7718C75.4785 10.7718 69.3895 5.19404 58.6379 5.19404C55.951 5.19404 52.9737 5.54237 49.7261 6.41278C49.7261 6.41278 49.2249 6.27839 48.3398 6.12315L49.1191 5.43346C50.1856 5.07974 51.2854 4.75537 52.4177 4.46729C52.4416 4.46111 52.4663 4.45417 52.4902 4.44644C55.5996 3.61774 58.4379 3.28717 60.9897 3.28717C70.8082 3.28717 76.3682 8.18526 76.6547 8.44399C76.9297 8.69654 77.2826 8.84792 77.6556 8.87186C87.0224 9.49744 94.8159 13.149 100.818 19.7261C104.631 23.9036 106.482 28.0093 106.976 29.2164C106.837 29.211 106.698 29.2079 106.559 29.2079C105.996 29.2079 105.429 29.2527 104.868 29.3376Z" fill="#FFE1C8"/>
<path d="M29.0494 9.08643C29.492 8.72807 29.9469 8.3867 30.4141 8.0631C35.0326 4.86259 40.1354 3.91496 44.1754 3.78984C42.7265 4.40615 41.341 5.07343 40.0195 5.78088C36.6491 6.07823 32.7774 6.97412 29.0494 9.08643Z" fill="#D6B8AD"/>
<path d="M110.045 35.3618C109.23 34.1987 108.265 33.2951 107.163 32.8224C106.908 32.7112 106.646 32.6255 106.378 32.5637C106.378 32.5637 105.926 31.2809 104.868 29.3377C105.429 29.2527 105.996 29.208 106.559 29.208C106.698 29.208 106.837 29.211 106.976 29.2164C107.067 29.4396 107.113 29.564 107.115 29.5709C107.303 30.1023 107.749 30.5008 108.299 30.6259C108.755 30.7302 109.198 30.9596 109.621 31.2901C109.794 32.5328 109.944 33.8998 110.045 35.3618Z" fill="#D6B8AD"/>
<path d="M21.3818 15.8791C18.8262 20.4929 16.9031 26.5981 16.0937 34.655C16.0937 34.655 15.3252 34.9176 14.1382 35.4351C15.3747 26.5896 18.0369 20.3122 21.3818 15.8791Z" fill="#FFC880"/>
<path d="M16.0914 34.6565C16.0914 34.6565 25.4234 9.65329 52.0114 2.87461L16.0914 34.6565Z" fill="#FFB375"/>
<path d="M18.7706 41.7472C22.8376 43.2324 28.5976 46.1572 32.5473 51.5998C33.9599 53.546 33.3397 55.9812 31.2173 57.0539C28.62 58.3661 24.5993 59.7161 19.5081 59.2759C17.8368 59.1315 16.2999 58.2394 15.4874 56.9149C13.9822 54.4612 11.9108 49.9462 12.7117 44.5809C13.0793 42.1133 16.0172 40.7424 18.7706 41.7472Z" fill="#11276F"/>
<path d="M77.7645 7.23215C77.7645 7.23215 73.2287 7.49629 70.5325 9.44409L77.7645 7.23215Z" fill="#FFC880"/>
<path d="M44.9385 88.1701L38.9391 93.2034L44.9385 88.1701Z" fill="#FFC880"/>
<path d="M25.8991 94.5288C22.7905 94.2917 20.0936 93.3456 18.3705 91.9323C17.9565 91.5932 17.5696 91.2403 17.2082 90.8765C19.7661 91.6952 22.2584 92.0821 24.6456 92.1485C25.0017 92.9479 25.4211 93.7488 25.8991 94.5288ZM54.4303 94.0677C53.8711 94.0677 53.3297 94.0585 52.8092 94.0407C50.632 93.9697 48.6587 93.7627 46.9403 93.4985C46.8963 91.7322 46.3116 89.952 45.5324 88.3441C45.5625 88.1819 45.5331 88.0088 45.4366 87.8606C45.3671 87.7524 45.2713 87.6714 45.1632 87.6196C44.8458 87.0257 44.5067 86.4604 44.1661 85.9352C44.5438 85.6811 44.896 85.4339 45.2234 85.1976C47.104 83.8391 49.3353 83.0235 51.6523 82.8953C68.9067 81.9407 75.8291 68.3378 77.4007 64.6445C76.4894 67.1198 76.1697 69.2198 76.3597 70.9521C75.7279 72.7338 75.2298 74.5619 75.117 76.4425C74.9672 78.9202 75.5526 81.5267 77.1729 83.4073C78.4542 84.8941 80.1896 85.7514 82.0988 86.1684C71.4902 92.564 61.4839 94.0677 54.4303 94.0677ZM68.2873 65.9359C66.8817 65.9359 65.4653 65.6323 64.14 65.0091L50.9803 58.8305C47.64 57.2619 45.4775 53.944 45.3764 50.2708C46.4059 52.7724 48.3428 54.8669 50.8668 56.0516L64.0264 62.2302C65.5332 62.9385 67.1327 63.2845 68.7175 63.2845C71.4384 63.2845 74.1153 62.2658 76.2013 60.3141L84.6876 52.3808L86.9104 52.8396C86.2809 53.615 85.6507 54.3896 85.0313 55.172L84.734 55.111C82.7051 57.9045 80.8716 60.6678 79.6443 63.3547C79.3424 63.9409 79.0512 64.5325 78.7701 65.1295C79.1153 63.5447 79.6814 61.0779 80.4476 58.1686L74.9494 63.3084C73.1059 65.033 70.7124 65.9359 68.2873 65.9359ZM92.7576 44.1223L86.6331 42.1908C86.501 42.1135 86.2616 41.976 85.9226 41.783C86.7752 39.8298 87.692 37.9878 88.6666 36.3605C90.6724 33.0117 93.3554 31.1427 95.1673 31.1427C96.7984 31.1427 97.7229 32.658 96.81 35.9751C96.671 36.3837 96.5405 36.7984 96.4115 37.2139C96.2864 37.5607 96.1435 37.9221 95.9829 38.2998C95.46 39.5332 94.8089 40.7774 94.0675 42.0309L94.0721 42.0015C94.0621 42.0255 94.0521 42.0502 94.042 42.0741C93.6389 42.7546 93.2087 43.4373 92.7576 44.1223ZM24.2842 42.8133C23.186 42.8133 22.09 42.4827 21.1532 41.8247L16.12 38.3036C15.5801 37.9268 15.1252 37.4641 14.7638 36.9436C15.4766 36.6339 16.1122 36.3883 16.6251 36.2114C16.6961 36.1867 16.7649 36.1581 16.8313 36.1249L20.8551 38.94C22.0035 39.7448 23.3466 40.1511 24.6943 40.1511C25.8968 40.1511 27.1016 39.8274 28.1736 39.1764L39.5276 32.2564C40.4204 31.8285 41.1973 31.6146 41.8515 31.6146C42.2678 31.6146 42.6338 31.7011 42.9482 31.8741C44.0341 32.4711 44.4642 34.0906 44.55 34.7309V36.118C43.9785 35.1572 43.0254 34.2775 41.4499 34.2775C40.6474 34.2775 39.6843 34.5054 38.5274 35.0668L27.1225 42.0178C26.2482 42.5491 25.265 42.8133 24.2842 42.8133Z" fill="#D78F74"/>
<path d="M82.0988 86.1682C80.1896 85.7512 78.4542 84.8939 77.1729 83.4072C75.5526 81.5265 74.9672 78.92 75.117 76.4424C75.2297 74.5617 75.7279 72.7337 76.3597 70.9519C76.8215 75.1657 80.297 77.2077 85.609 77.2077C89.3563 77.2077 94.0173 76.1913 99.1756 74.2042C105.437 71.7922 108.81 67.4015 110.603 62.9715L110.587 62.9468C109.627 61.4153 108.179 60.2745 106.494 59.6806C104.202 62.2679 102.202 63.6411 102.085 63.7199C103.299 62.3204 104.339 60.8507 105.235 59.3377L85.0313 55.1718C85.6507 54.3894 86.2809 53.6148 86.9104 52.8394L105.624 56.6971C107.408 57.0663 108.986 58.163 109.951 59.7045L110.937 61.2863C111.79 62.6533 113.262 63.4689 114.875 63.4689C115.252 63.4689 115.629 63.4217 115.997 63.3298C116.026 63.7407 116.047 64.1524 116.058 64.5648C116.062 64.5895 116.062 64.6142 116.058 64.6389C116.075 65.3387 116.062 66.0391 116.015 66.7366C115.654 67.9051 115.137 69.0365 114.427 70.1101V70.1108C105.614 83.4334 84.1918 85.2082 83.9771 85.2244C83.7083 85.2445 83.4488 85.331 83.2202 85.4754C82.8464 85.7125 82.4718 85.9435 82.0988 86.1682ZM78.3723 67.0262C78.3723 67.0262 78.5083 66.3303 78.7701 65.1294C79.0512 64.5323 79.3424 63.9407 79.6443 63.3545C79.0775 64.5964 78.6396 65.8214 78.3723 67.0262ZM113.495 50.6946C113.266 50.6004 113.031 50.5154 112.793 50.4405L112.478 50.3409C112.433 49.6891 112.381 49.3191 112.381 49.3191C112.289 49.6234 112.192 49.9239 112.09 50.2189L109.132 49.2859C110.229 44.36 110.332 39.4859 110.045 35.3617C111.958 38.0888 113.047 42.2408 113.145 45.6081V45.6166C113.162 46.175 113.153 46.7133 113.112 47.2184C113.108 47.2516 113.108 47.284 113.108 47.3172C113.054 48.2309 113.22 49.3763 113.495 50.6946ZM94.042 42.074C94.052 42.05 94.0621 42.0253 94.0721 42.0014L94.0675 42.0307C94.059 42.0454 94.0505 42.0593 94.042 42.074ZM96.4115 37.2137C96.5405 36.7982 96.671 36.3835 96.81 35.9749C96.7027 36.3634 96.5714 36.7758 96.4115 37.2137Z" fill="#863E3E"/>
<path d="M116.015 66.7366C116.063 66.0392 116.075 65.3387 116.058 64.6389C116.063 64.6142 116.063 64.5895 116.058 64.5648C116.047 64.1524 116.026 63.7407 115.997 63.3299C116.227 63.2719 116.453 63.197 116.672 63.1059C116.586 64.3401 116.38 65.558 116.015 66.7366ZM115.148 51.579C114.631 51.2299 114.078 50.9325 113.495 50.6946C113.22 49.3763 113.054 48.2309 113.108 47.3173C113.108 47.2841 113.108 47.2516 113.112 47.2184C113.153 46.7133 113.162 46.175 113.145 45.6166V45.6081C113.047 42.2408 111.958 38.0888 110.045 35.3617C109.944 33.8997 109.794 32.5327 109.621 31.29C112.231 33.3313 114.094 39.2411 113.76 43.5537C113.619 45.4019 114.226 47.854 114.93 50.6931C115.002 50.985 115.075 51.2801 115.148 51.579Z" fill="#B693A1"/>
<path d="M24.5136 49.6127C23.9791 50.3487 21.7726 49.6567 19.5869 48.0672C17.4005 46.4778 16.062 44.5926 16.5965 43.8565C17.1317 43.1213 19.3375 43.8133 21.5239 45.4027C23.7104 46.9922 25.0488 48.8766 24.5136 49.6127Z" fill="white"/>
<path d="M45.1454 3.77532C40.9749 3.77532 35.4111 4.60016 30.4141 8.06326C23.2825 13.0054 19.0146 22.0076 17.7272 34.8212C17.6631 35.4599 17.2321 36.0028 16.6251 36.2114C13.1203 37.4193 3.89802 41.8563 3.3316 47.8001C2.63929 55.0638 10.3757 60.7798 10.4539 60.8369C10.5907 60.9365 10.7136 61.0578 10.8139 61.1945L14.1127 65.6848C14.4448 66.1366 14.5236 66.7259 14.322 67.2487C14.2602 67.4102 8.21076 83.6004 18.3705 91.9322C22.202 95.074 30.8451 95.9074 38.1281 91.7739C38.566 91.5252 39.0935 91.4912 39.5592 91.6812C39.6086 91.7013 44.8388 93.7796 52.8092 94.0406C60.1308 94.2832 71.355 92.9903 83.2202 85.4756C83.4488 85.3312 83.7083 85.2447 83.9771 85.2246C84.1918 85.2084 105.614 83.4336 114.427 70.111V70.1102C118.292 64.266 116.428 56.7397 114.93 50.6932C114.226 47.8542 113.619 45.402 113.76 43.5539C114.148 38.5415 111.569 31.3735 108.299 30.6259C107.749 30.5008 107.303 30.1023 107.115 29.5709C107.099 29.5254 105.336 24.6767 100.818 19.7261C94.8159 13.149 87.0224 9.49747 77.6556 8.87189C77.2826 8.84795 76.9296 8.69657 76.6547 8.44402C76.2932 8.1181 67.5436 0.410301 52.4377 4.46037C52.1597 4.53529 51.8654 4.53528 51.5874 4.46114C51.5333 4.44646 48.9059 3.77532 45.1454 3.77532ZM27.4955 97.8706C22.9295 97.8706 18.8455 96.5723 16.286 94.4739C5.63027 85.7351 9.69817 70.7234 10.9506 66.9321L8.30884 63.3362C6.87355 62.2356 -0.7482 55.962 0.0598048 47.4881C0.817454 39.5378 11.2404 34.7926 14.5661 33.4743C16.0837 20.1764 20.7941 10.7131 28.5752 5.33851C38.3559 -1.41701 49.6102 0.636589 51.9959 1.17876C66.8632 -2.64347 76.2654 3.9043 78.4156 5.632C90.928 6.62289 98.869 12.6764 103.346 17.62C107.204 21.8801 109.188 26.002 109.902 27.6872C115.323 29.7694 117.415 38.9261 117.037 43.8056C116.936 45.1255 117.511 47.4456 118.12 49.9024C119.685 56.2215 121.83 64.8762 117.168 71.9236C108.064 85.688 87.8935 88.154 84.639 88.466C72.1312 96.2773 60.3007 97.5949 52.5482 97.3207C45.7417 97.0782 40.8698 95.6239 39.0734 95.003C35.2728 97.0048 31.2235 97.8706 27.4955 97.8706Z" fill="#11276F"/>
<path d="M16.0906 36.3C15.8998 36.3 15.7052 36.2661 15.5152 36.195C14.6657 35.8776 14.2347 34.9315 14.5514 34.0819C14.6502 33.817 17.0421 27.5033 22.7959 20.2836C28.1134 13.61 37.4284 4.89662 51.6051 1.28215C52.4848 1.05817 53.3792 1.58874 53.6039 2.46841C53.8279 3.34809 53.2973 4.24245 52.4176 4.4672C39.1723 7.84379 30.435 15.9964 25.438 22.2415C19.98 29.0634 17.653 35.1717 17.6306 35.2327C17.3827 35.8923 16.7564 36.3 16.0906 36.3Z" fill="#11276F"/>
<path d="M97.4047 35.3115C97.4009 35.5818 97.3746 35.7355 97.3537 35.9216C97.3252 36.093 97.302 36.2691 97.2688 36.4367C97.2031 36.7742 97.1251 37.1063 97.0386 37.4323C96.8703 38.088 96.6641 38.7267 96.447 39.3615C95.9921 40.6212 95.4453 41.8368 94.8669 43.0355C93.6806 45.4173 92.2603 47.6617 90.7481 49.8296C89.9951 50.9139 89.1702 51.9558 88.3747 52.9946C87.5815 54.0063 86.803 55.0289 86.0477 56.0661C84.5378 58.1398 83.1152 60.2699 81.827 62.4633C80.5472 64.659 79.3995 66.9203 78.4944 69.2435C77.5969 71.562 76.9513 73.9701 76.8478 76.3265C76.7435 78.6713 77.2502 80.9627 78.5708 82.6171C79.2265 83.4411 80.0684 84.103 81.0261 84.5517C81.9822 84.9974 83.0503 85.2337 84.0899 85.2206H84.0922C85.0004 85.2097 85.745 85.9365 85.7558 86.844C85.7666 87.7515 85.0398 88.496 84.1323 88.5076H84.1138C82.5522 88.5083 81.0245 88.1492 79.6312 87.4842C78.2395 86.817 76.9961 85.8191 76.0461 84.5973C75.0962 83.3732 74.4528 81.9482 74.0999 80.5017C73.7492 79.0505 73.6705 77.5838 73.7562 76.1651C73.9423 73.3198 74.7401 70.6568 75.7596 68.1545C76.7844 65.6476 78.0704 63.2951 79.4706 61.0391C80.8793 58.7862 82.4093 56.6299 84.0173 54.5439C84.822 53.5012 85.6469 52.4771 86.4856 51.4662C87.3004 50.4637 88.1114 49.4844 88.8767 48.458C90.4376 46.4337 91.8587 44.3106 93.1384 42.1133C93.7655 41.0097 94.3579 39.8859 94.8715 38.7321C95.1271 38.1559 95.3735 37.5751 95.582 36.9866C95.6894 36.6924 95.7852 36.3981 95.8724 36.1039C95.9188 35.9564 95.9535 35.8127 95.9952 35.6667L96.0748 35.3115L96.1095 35.1585C96.1891 34.8056 96.5405 34.5839 96.8934 34.6635C97.2008 34.733 97.4086 35.0087 97.4047 35.3115Z" fill="#11276F"/>
<path d="M77.8603 8.87347C77.6201 8.8503 77.2965 8.84335 77.0076 8.84181C76.7103 8.84026 76.4099 8.84567 76.111 8.85802C75.5109 8.88274 74.9123 8.93526 74.3176 9.01481C73.726 9.10131 73.1429 9.2187 72.5699 9.37239C72.0053 9.53767 71.4569 9.74311 70.9395 10.0072L70.9047 10.025C70.5618 10.1995 70.1417 10.0636 69.9671 9.7207C69.8196 9.43185 69.8938 9.0874 70.1262 8.88196C70.6537 8.41548 71.2314 8.01464 71.8308 7.66246C72.4339 7.32341 73.0564 7.02529 73.6905 6.7627C74.3261 6.50784 74.9726 6.2831 75.6275 6.08771C75.9557 5.99039 76.2855 5.90003 76.6199 5.81739C76.9628 5.73321 77.2733 5.65906 77.6695 5.59187L77.7375 5.58028C78.6427 5.42659 79.5007 6.03518 79.6544 6.93957C79.8089 7.84473 79.1995 8.70279 78.2951 8.85725C78.1507 8.88197 77.9993 8.88583 77.8603 8.87347Z" fill="#11276F"/>
<path d="M37.8833 91.9437L44.5114 87.6612C44.8218 87.4604 45.2358 87.5499 45.4366 87.8604C45.6065 88.1222 45.5687 88.4597 45.3648 88.6783L39.9956 94.4622C39.3731 95.1326 38.325 95.1712 37.6547 94.5487C36.9843 93.9262 36.9457 92.8782 37.5682 92.2086C37.6616 92.1074 37.7728 92.0163 37.8833 91.9437Z" fill="#3A0000"/>
<path d="M9.4895 62.1675C9.4895 62.1675 14.9515 64.1678 17.0638 58.7638C17.0638 58.7638 19.9692 72.6402 31.1942 74.6212C42.4191 76.6022 52.3242 68.6782 52.3242 68.6782C52.3242 68.6782 34.7446 95.5388 22.7426 89.8082C12.9704 85.1418 19.2834 64.7671 19.2834 64.7671L9.4895 62.1675Z" fill="#11276F"/>
<path d="M19.9043 68.9957C18.5435 75.5064 17.782 85.6184 23.4509 88.3254C30.1925 91.5421 40.045 81.9027 46.3696 74.0258C42.294 75.8068 36.8036 77.2796 30.9084 76.2393C25.7979 75.338 22.2785 72.2827 19.9043 68.9957ZM26.3749 92.2673C24.8464 92.2673 23.3991 91.9422 22.0344 91.2911C12.0552 86.5266 16.4683 68.6837 17.5202 64.9425C17.1047 64.0721 16.7633 63.2457 16.486 62.5012C14.0347 64.6645 10.7239 64.3695 8.92414 63.7107C8.07188 63.3979 7.63405 62.4541 7.9463 61.6022C8.25739 60.7527 9.19623 60.314 10.0469 60.6214C10.7154 60.8562 14.1003 61.8316 15.5338 58.1654C15.7979 57.4881 16.4768 57.0679 17.2004 57.1258C17.9249 57.1868 18.5234 57.7159 18.6725 58.4272C18.6995 58.5531 21.5038 71.2424 31.4799 73.0025C41.8538 74.8329 51.2043 67.4703 51.297 67.3954C51.928 66.8911 52.8308 66.9189 53.4294 67.4626C54.0271 68.0056 54.1407 68.903 53.6989 69.5788C53.5159 69.8584 49.1468 76.4988 43.2061 82.5445C36.8476 89.0143 31.2081 92.2673 26.3749 92.2673Z" fill="#11276F"/>
<path d="M44.3276 88.6815C46.1356 92.2852 46.9079 96.7716 41.9403 99.491C32.6099 104.598 24.8573 93.3286 24.5036 86.9114C24.3846 84.762 24.8411 83.3 25.4983 82.3052C26.8005 80.3335 28.9043 80.2099 28.9043 80.2099C29.1259 79.7048 29.3808 79.253 29.6681 78.8421C29.8573 78.5625 30.0666 78.3038 30.289 78.0652C31.2583 77.0094 32.4662 76.3436 33.7768 75.9621C38.9784 74.4337 45.7818 77.2851 45.7818 77.2851C38.4486 76.3807 40.3586 83.0366 40.3586 83.0366C40.3586 83.0366 42.742 85.5181 44.3276 88.6815Z" fill="#FF67A0"/>
<path d="M37.1874 99.5527C35.8243 99.5527 34.4696 99.1813 33.1343 98.4383C28.9606 96.1174 25.9385 90.5691 25.7339 86.8426C25.6759 85.7853 25.774 84.935 25.9671 84.2507C26.8715 87.5709 28.5073 91.4858 31.4112 93.5379C31.6166 93.6839 31.8344 93.7472 32.0422 93.7472C32.8137 93.7472 33.461 92.8752 32.9589 92.0851C31.446 89.7071 29.6812 85.9475 29.5762 81.2464C29.7747 81.1174 29.9361 80.9312 30.0349 80.7057C30.2064 80.3134 30.4041 79.9566 30.6242 79.633C31.7549 84.5341 34.621 93.5912 40.3454 93.5912C40.4126 93.5912 40.4798 93.5896 40.5478 93.5873C42.6925 93.5093 43.1281 92.1168 42.6145 90.1196C42.1828 88.4351 41.0768 86.3213 39.7538 84.2028C40.8953 85.4879 45.0412 90.4803 44.4171 94.5303C44.1677 96.1476 43.1637 97.4173 41.3471 98.4112C39.957 99.172 38.5676 99.5527 37.1874 99.5527ZM39.1368 83.239C37.6091 80.9019 35.8984 78.6382 34.6295 77.0287C35.469 76.8317 36.3525 76.7514 37.2368 76.7514C38.4193 76.7514 39.6032 76.8959 40.6853 77.099C40.4644 77.2743 40.262 77.4705 40.0767 77.6867C38.3899 79.6615 38.9723 82.567 39.1368 83.239Z" fill="#D75297"/>
<path d="M37.2368 76.7513C34.302 76.7513 31.3765 77.6379 30.0349 80.7056C29.8488 81.1304 29.4402 81.4154 28.9776 81.4424C28.6285 81.471 25.4612 81.8718 25.7339 86.8425C25.9385 90.5689 28.9606 96.1173 33.1343 98.4382C35.8212 99.9326 38.5846 99.9233 41.3472 98.4111C43.1637 97.4171 44.1677 96.1474 44.4171 94.5302C45.1354 89.8646 39.5252 83.9494 39.4681 83.8899C39.3298 83.7455 39.2279 83.5686 39.1731 83.3763C39.1321 83.235 38.1999 79.8838 40.0767 77.6866C40.262 77.4703 40.4644 77.2742 40.6853 77.0989C39.6032 76.8957 38.4193 76.7513 37.2368 76.7513ZM37.1859 102.017C35.4095 102.017 33.644 101.542 31.9364 100.593C26.8923 97.7871 23.5119 91.3413 23.2725 86.9776C22.9504 81.0987 26.4583 79.5293 28.0601 79.1208C32.5064 70.5055 45.6876 75.9079 46.2584 76.1466C46.826 76.3844 47.1311 77.0054 46.9735 77.6001C46.8152 78.1948 46.2421 78.5802 45.6312 78.5068C44.3909 78.3546 42.7466 78.3647 41.9557 79.2822C41.2105 80.1488 41.3255 81.6648 41.4808 82.4348C42.657 83.7292 47.6671 89.6004 46.8538 94.9001C46.487 97.2959 45.0319 99.2043 42.5304 100.574C40.7725 101.536 38.9746 102.017 37.1859 102.017Z" fill="#11276F"/>
<path d="M30.0604 80.6424C30.0573 80.6231 30.0094 80.7567 29.9855 80.837C29.9546 80.9266 29.9353 81.0362 29.9075 81.1359C29.8673 81.3483 29.8287 81.5676 29.8125 81.797C29.78 82.0225 29.7932 82.2596 29.7808 82.4936C29.7893 82.7307 29.8009 82.9701 29.8171 83.2103C29.9013 84.175 30.1515 85.155 30.4967 86.1104C30.8257 87.0758 31.2992 88.0003 31.7919 88.9201L32.6137 90.2624L33.5188 91.5622L33.5281 91.5762C33.6162 91.7028 33.5853 91.8766 33.4586 91.9646C33.3435 92.0449 33.1891 92.0264 33.0956 91.9276L31.9819 90.7482C31.629 90.3373 31.2822 89.9172 30.9323 89.497C30.2789 88.622 29.6333 87.723 29.1174 86.7283C28.586 85.7443 28.135 84.6917 27.8577 83.5525C27.7936 83.2667 27.7357 82.9771 27.6816 82.6852C27.6484 82.387 27.5928 82.0928 27.5859 81.7846C27.5627 81.4811 27.5658 81.1683 27.5789 80.8509C27.5951 80.6879 27.6013 80.5311 27.6276 80.3605C27.6569 80.1797 27.6685 80.0538 27.7504 79.7812C27.9882 79.1441 28.698 78.8189 29.3359 79.0568C29.9739 79.2947 30.2982 80.0044 30.0604 80.6424Z" fill="#11276F"/>
<path d="M116.351 61.8996C115.878 62.1259 115.373 62.2363 114.875 62.2363C113.733 62.2363 112.624 61.6609 111.983 60.6345L110.997 59.052C109.847 57.2162 107.998 55.9295 105.873 55.4901L84.3123 51.0446L75.3595 59.4143C72.4471 62.1375 68.1615 62.8117 64.5501 61.1149L51.3905 54.9355C47.9683 53.3291 45.7826 49.8861 45.7826 46.1063V34.6559C45.7826 34.6559 45.1007 28.1807 38.9375 31.1719L27.5326 38.1236C25.6798 39.2497 23.3381 39.1755 21.5625 37.9305L16.5301 34.4095C14.6564 33.0989 13.7976 30.7611 14.3768 28.5507L16.0906 22.0183C16.0906 22.0183 12.6105 18.6742 16.0906 15.3254C19.5746 11.9812 23.0956 15.3254 23.0956 15.3254L40.1748 25.1856C40.1748 25.1856 47.5698 21.6646 52.0114 30.1162C52.0114 30.1162 57.9343 28.6596 68.5229 33.9538C79.4505 39.4165 86.1319 43.3252 86.1319 43.3252L112.423 51.6161C114.518 52.2772 116.248 53.7856 117.192 55.7735L117.952 57.3637C118.758 59.0605 118.043 61.0902 116.351 61.8996Z" fill="#FF1B40"/>
<path d="M77.1057 50.7611C75.5325 52.4873 73.5106 54.4382 71.2754 55.9342C69.2875 57.2695 66.7157 57.38 64.591 56.2709L62.6069 55.2352L59.0859 53.3948L54.879 51.1929L53.9013 50.6831C52.3234 49.8575 51.1564 48.4403 50.6513 46.7844C50.4745 46.2214 50.3802 45.6298 50.3679 45.022C50.3347 43.3623 50.4582 41.209 50.9425 38.6086C51.4731 35.7449 54.4064 34.0071 57.1836 34.886C58.909 35.4282 60.9796 36.131 63.207 36.9813C65.2444 37.766 67.4138 38.6781 69.5709 39.7215C70.9882 40.3996 72.4015 41.1395 73.7701 41.9319C74.5957 42.4085 75.4004 42.9058 76.1859 43.4233C76.4647 43.6087 76.7196 43.818 76.9412 44.0442C78.7454 45.8391 78.8929 48.8018 77.1057 50.7611Z" fill="#11276F"/>
<path d="M54.879 51.1929L53.9013 50.6831C52.3234 49.8575 51.1564 48.4403 50.6513 46.7844L63.207 36.9813C65.2444 37.766 67.4138 38.6781 69.5709 39.7215L54.879 51.1929Z" fill="#AF99C7"/>
<path d="M62.6069 55.2351L59.0859 53.3947L73.7701 41.9318C74.5957 42.4084 75.4004 42.9057 76.1859 43.4232C76.4647 43.6085 76.7196 43.8178 76.9412 44.0441L62.6069 55.2351Z" fill="#AF99C7"/>
<path d="M84.3123 49.8128C84.3949 49.8128 84.4783 49.8205 84.561 49.8375L106.123 54.283C108.562 54.7881 110.72 56.2879 112.042 58.3979L113.029 59.982C113.428 60.6214 114.119 61.0037 114.875 61.0037C115.197 61.0037 115.523 60.9296 115.818 60.7875C116.895 60.2731 117.353 58.9741 116.839 57.8928L116.08 56.3057C115.283 54.6282 113.815 53.3477 112.051 52.7916L85.7611 44.5007C85.6739 44.4729 85.5897 44.4351 85.5101 44.3887C85.4437 44.3501 78.7307 40.4344 67.9722 35.056C58.0108 30.076 52.3535 31.3025 52.2971 31.3148C51.7519 31.4423 51.1811 31.1859 50.9201 30.69C47.1033 23.4263 40.9587 26.1804 40.6992 26.3009C40.3346 26.4708 39.906 26.4538 39.5584 26.253L22.4793 16.3928C22.3951 16.3449 22.3171 16.2862 22.2468 16.219C21.9749 15.9672 19.4757 13.7846 16.944 16.2151C16.1632 16.9658 15.7809 17.725 15.7763 18.5344C15.7685 19.9563 16.9378 21.1233 16.9494 21.1348C17.2645 21.4445 17.3943 21.9041 17.2823 22.3312L15.5693 28.8635C15.1229 30.5665 15.7925 32.3899 17.2367 33.3993L22.2692 36.9204C23.6424 37.8835 25.4573 37.9429 26.8923 37.0702L38.2965 30.1193C38.3297 30.0992 38.3644 30.0799 38.4 30.0629C40.6536 28.9693 42.589 28.855 44.1522 29.7231C46.6198 31.094 46.9936 34.3871 47.0083 34.5269C47.0129 34.5702 47.0152 34.6127 47.0152 34.6559V46.1064C47.0152 49.3949 48.9383 52.4232 51.9141 53.8203L65.0745 59.9989C68.2502 61.4911 71.9566 60.9087 74.5177 58.5138L83.4704 50.1449C83.7006 49.9294 84.0026 49.8128 84.3123 49.8128ZM114.875 63.469C113.262 63.469 111.79 62.6534 110.937 61.2864L109.951 59.7047C108.986 58.1631 107.408 57.0664 105.624 56.6973L84.6876 52.3807L76.2013 60.3141C72.8996 63.4018 68.1205 64.154 64.0264 62.2302L50.8668 56.0516C47.0299 54.2505 44.55 50.3464 44.55 46.1064V34.7308C44.4642 34.0906 44.034 32.471 42.9482 31.874C42.1388 31.4291 40.988 31.5574 39.5275 32.2563L28.1736 39.1763C25.9007 40.5572 23.0284 40.4638 20.8551 38.94L15.8234 35.4197C13.5381 33.821 12.4777 30.9349 13.1851 28.2379L14.7329 22.3343C14.1621 21.6036 13.3118 20.2328 13.311 18.5507C13.311 17.0508 13.9582 15.6668 15.2356 14.4373C18.5806 11.2267 22.2483 12.9073 23.8301 14.3268L40.2852 23.8264C42.284 23.1506 48.5174 21.7612 52.6717 28.7724C54.8226 28.5546 60.5062 28.5677 69.0743 32.851C79.1192 37.8726 85.6739 41.6354 86.6331 42.1907L112.793 50.4407C115.208 51.2029 117.217 52.9538 118.306 55.2445L119.065 56.8324C120.16 59.1417 119.181 61.912 116.882 63.0118C116.256 63.3107 115.563 63.469 114.875 63.469Z" fill="#11276F"/>
<path d="M84.3123 51.0454H84.3161H84.3123ZM84.3123 51.0454H84.3161H84.3123ZM47.0152 34.8374V46.1064C47.0152 49.3957 48.9383 52.4232 51.9141 53.8204L65.0745 59.999C68.2503 61.4911 71.9567 60.9088 74.5177 58.5138L83.3515 50.2561C83.7014 49.6738 85.2352 46.9343 84.9827 44.052C83.3353 43.014 77.4085 39.4042 68.0078 35.073C57.8401 30.3896 52.2933 31.318 52.2377 31.328C52.2076 31.3334 52.169 31.3388 52.1381 31.3427C52.0995 31.3465 47.9891 31.8323 47.0152 34.8374ZM68.7175 63.2844C67.1327 63.2844 65.5332 62.9384 64.0264 62.2302L50.8668 56.0516C47.0299 54.2506 44.55 50.3465 44.55 46.1064V34.6559C44.55 34.5432 44.5654 34.4312 44.5963 34.3231C45.8838 29.7393 51.2198 28.9693 51.8338 28.8959C52.5157 28.7809 58.4904 27.9746 69.0388 32.834C80.3518 38.0457 86.5543 42.1258 86.8131 42.2973C87.0981 42.4865 87.2919 42.7854 87.3483 43.1229C88.0758 47.5097 85.453 51.5528 85.341 51.7235C85.2877 51.8046 85.2252 51.8788 85.1541 51.9452L76.2014 60.3141C74.1153 62.2657 71.4384 63.2844 68.7175 63.2844Z" fill="#11276F"/>
<path d="M55.7116 35.686C55.0211 35.686 54.3368 35.8714 53.7337 36.2336C52.7991 36.7943 52.1504 37.7281 51.9527 38.7954C51.5441 40.9881 51.3565 43.0756 51.3943 45.001C51.4051 45.5131 51.4847 46.0097 51.6314 46.477C52.0608 47.8857 53.061 49.0843 54.377 49.7732L65.0667 55.3602C66.8778 56.3063 69.038 56.1997 70.7032 55.0814C72.5305 53.8581 74.4288 52.1721 76.3465 50.069C77.7321 48.5499 77.6749 46.2236 76.2168 44.7717C76.0353 44.5871 75.8368 44.4249 75.6182 44.2797C74.8536 43.7754 74.0581 43.2842 73.2565 42.8215C71.9535 42.067 70.5649 41.3356 69.1276 40.6482C67.1999 39.716 65.0853 38.8055 62.8378 37.9397C60.8746 37.1898 58.8673 36.4916 56.8755 35.866C56.4955 35.7455 56.1024 35.686 55.7116 35.686ZM67.6664 58.0564C66.4554 58.0564 65.2366 57.7668 64.116 57.1814L53.4263 51.5944C51.6244 50.6506 50.2559 49.0079 49.6689 47.084C49.4666 46.4391 49.3554 45.7494 49.3407 45.0427C49.2998 42.9768 49.499 40.7486 49.9331 38.4201C50.2374 36.775 51.2375 35.3362 52.6764 34.472C54.1252 33.6023 55.8807 33.3953 57.4933 33.9066C59.523 34.5446 61.5689 35.2559 63.5731 36.022C65.8761 36.9086 68.0441 37.8424 70.0181 38.797C71.5002 39.506 72.9367 40.2621 74.2852 41.0437C75.1201 41.5256 75.9503 42.0384 76.7512 42.5659C77.091 42.7907 77.4007 43.0455 77.6741 43.3243C79.9054 45.5455 79.9927 49.1199 77.8649 51.4538V51.453C75.8353 53.6789 73.811 55.4738 71.847 56.7875C70.5927 57.6301 69.1353 58.0564 67.6664 58.0564Z" fill="#11276F"/>
<path d="M38.9375 32.4045C38.6541 32.4045 38.3691 32.3072 38.1366 32.1087C37.6191 31.6662 37.5589 30.8885 38.0014 30.371C40.0496 27.9753 39.0997 25.7996 39.058 25.7085C38.7799 25.0937 39.0441 24.3623 39.655 24.0766C40.2667 23.79 40.9911 24.0426 41.2846 24.6504C41.3564 24.7987 42.9991 28.3205 39.8743 31.9728C39.631 32.2578 39.285 32.4045 38.9375 32.4045Z" fill="#11276F"/>
<path d="M33.5313 28.9615L25.3469 33.797C24.6279 34.2202 23.7529 34.2372 23.0338 33.8634C22.8778 33.7846 22.7257 33.6865 22.5859 33.5715L21.0165 32.2647L19.4672 30.9788C19.2989 30.839 19.1552 30.6791 19.0363 30.5061C18.6416 29.9438 18.5018 29.2248 18.6787 28.5382L19.6526 24.6967L20.6674 20.6914C20.9099 19.7376 22.0105 19.2943 22.8446 19.8156L24.5499 20.876L28.3459 23.2339L30.7084 24.7013L32.9682 26.1062L33.5598 26.4715C34.4843 27.0515 34.4719 28.4069 33.5313 28.9615Z" fill="#11276F"/>
<path d="M19.0363 30.5061C18.7559 30.106 18.6038 29.6272 18.603 29.1368C18.603 28.9375 18.6277 28.7367 18.6787 28.5382L19.6526 24.6967L24.5499 20.876L28.3459 23.2339L19.0363 30.5061Z" fill="#AF99C7"/>
<path d="M23.0338 33.8635C22.8778 33.7847 22.7257 33.6867 22.5859 33.5716L21.0165 32.2648L30.7084 24.7015L32.9682 26.1063L23.0338 33.8635Z" fill="#AF99C7"/>
<path d="M22.0769 20.4166C21.9974 20.4166 21.9178 20.4321 21.8414 20.463C21.6514 20.5386 21.5139 20.6962 21.4637 20.8939L19.4749 28.7407C19.3599 29.1879 19.4456 29.659 19.709 30.0351C19.7924 30.1556 19.8866 30.2591 19.9916 30.3464L23.1118 32.9398C23.1999 33.0124 23.298 33.0765 23.4014 33.1283C23.8919 33.3832 24.4595 33.3662 24.9299 33.0889L33.1126 28.2542H33.1134C33.3884 28.092 33.4216 27.8263 33.4231 27.7197C33.4247 27.6108 33.3984 27.3405 33.1235 27.1683L22.4113 20.5139C22.3078 20.449 22.1928 20.4166 22.0769 20.4166ZM24.129 34.9548C23.6246 34.9548 23.1195 34.8344 22.6546 34.5918C22.453 34.4914 22.2507 34.3594 22.0638 34.2057L18.9428 31.6114C18.7219 31.4284 18.5258 31.2137 18.3597 30.9727C17.8237 30.2081 17.6484 29.2443 17.8832 28.3337L19.8704 20.49C20.0519 19.7764 20.5477 19.211 21.2304 18.9376C21.9109 18.6642 22.6585 18.7306 23.281 19.1199L33.9915 25.7727C34.6774 26.2029 35.0774 26.9373 35.0666 27.7413C35.0558 28.5422 34.638 29.2628 33.9491 29.669L25.7648 34.5046C25.2566 34.8042 24.6928 34.9548 24.129 34.9548Z" fill="#11276F"/>
<path d="M34.8697 73.2952C33.7598 73.2952 32.6261 73.2048 31.4799 73.0025C22.9303 71.4941 19.6479 61.9582 18.8671 59.1825C19.078 59.2257 19.2919 59.2574 19.5081 59.2759C19.8333 59.3037 20.153 59.3246 20.4689 59.3385C23.0454 62.5545 26.405 66.016 29.5576 67.027C31.6637 67.702 35.1029 67.9267 38.7521 67.9267C41.0521 67.9267 43.4347 67.8379 45.6212 67.7151C45.6737 67.712 45.7247 67.7105 45.7756 67.7105C46.9828 67.7105 47.8161 68.5176 48.0857 69.4822C45.079 71.1798 40.252 73.2952 34.8697 73.2952ZM11.7772 60.9148C11.1439 60.9148 10.595 60.7889 10.264 60.6908C9.0715 59.7548 2.70053 54.4203 3.33159 47.8C3.49672 46.0669 4.39771 44.462 5.67783 43.0286C5.22711 47.4941 6.57945 52.091 13.5999 52.9761C14.1683 54.5756 14.8742 55.9163 15.4874 56.915C15.6249 57.1389 15.7825 57.3505 15.9585 57.5483C15.7755 57.7143 15.628 57.9236 15.5338 58.1653C14.6556 60.4105 13.0469 60.9148 11.7772 60.9148Z" fill="#D78F74"/>
<path d="M20.4689 59.3386C20.153 59.3247 19.8333 59.3039 19.5081 59.2761C19.2919 59.2575 19.0779 59.2259 18.8671 59.1826C18.7373 58.72 18.6763 58.445 18.6725 58.4273C18.5234 57.716 17.9249 57.1869 17.2004 57.1259C17.1564 57.1228 17.1116 57.1205 17.0676 57.1205C16.6513 57.1205 16.2574 57.2781 15.9585 57.5484C15.7824 57.3507 15.6249 57.1391 15.4874 56.9151C14.8742 55.9165 14.1683 54.5757 13.5999 52.9762C14.3606 53.072 15.1878 53.1237 16.086 53.1276C16.086 53.1276 17.8816 56.1088 20.4689 59.3386Z" fill="#11276F"/>
<path d="M8.69731 60.7271C6.59172 58.9507 1.04992 53.5892 1.6938 46.8329C1.98551 43.7722 4.011 41.2043 6.45564 39.1831C6.10477 40.3864 5.81175 41.7016 5.67783 43.0285C4.39771 44.4619 3.49671 46.0668 3.33159 47.7999C2.70052 54.4202 9.0715 59.7547 10.264 60.6908C10.1751 60.6645 10.1018 60.6406 10.0469 60.6212C9.86267 60.5548 9.6743 60.5232 9.4891 60.5232C9.20975 60.5232 8.93742 60.595 8.69731 60.7271Z" fill="#11276F"/>
<path d="M16.6838 63.0178C16.5123 62.929 16.3393 62.8441 16.1679 62.7645C16.2752 62.6811 16.3818 62.593 16.4861 62.5011C16.5486 62.6695 16.6143 62.8417 16.6838 63.0178Z" fill="#11276F"/>
<path d="M32.718 74.9812C31.5077 74.7333 30.1786 74.3904 28.6941 73.944C24.9638 72.8218 22.1541 66.8548 18.3697 64.0629C17.8191 63.6566 17.2522 63.3114 16.6837 63.0179C16.6142 62.8418 16.5486 62.6696 16.486 62.5012C16.3818 62.5931 16.2752 62.6812 16.1678 62.7646C13.3689 61.4655 10.6413 61.352 9.77245 61.352C9.58818 61.352 9.48762 61.3574 9.48762 61.3574C9.48762 61.3574 9.18456 61.1381 8.6973 60.7272C8.93741 60.5951 9.20974 60.5233 9.48909 60.5233C9.67429 60.5233 9.86266 60.555 10.0469 60.6214C10.1018 60.6407 10.1751 60.6646 10.264 60.6909C10.595 60.789 11.1439 60.9149 11.7772 60.9149C13.0469 60.9149 14.6556 60.4106 15.5338 58.1654C15.628 57.9237 15.7755 57.7144 15.9585 57.5483C16.2574 57.278 16.6513 57.1204 17.0676 57.1204C17.1116 57.1204 17.1564 57.1228 17.2004 57.1258C17.9249 57.1869 18.5234 57.7159 18.6725 58.4272C18.6763 58.445 18.7373 58.7199 18.8671 59.1826C19.6479 61.9583 22.9303 71.4942 31.4799 73.0025C32.626 73.2049 33.7598 73.2952 34.8696 73.2952C40.252 73.2952 45.079 71.1798 48.0856 69.4823C48.3606 70.4639 48.0509 71.6085 46.9542 72.2333C45.0411 73.3223 43.4061 74.2004 41.7039 74.7696C40.3307 74.4776 38.7629 74.256 37.1696 74.256C35.6613 74.256 34.129 74.4552 32.718 74.9812Z" fill="#11276F"/>
<path d="M37.2106 75.4932C35.8899 75.4932 34.424 75.331 32.718 74.9811C34.129 74.4552 35.6613 74.2559 37.1697 74.2559C38.763 74.2559 40.3308 74.4775 41.704 74.7695C40.3146 75.2344 38.8788 75.4932 37.2106 75.4932Z" fill="#11276F"/>
</svg>
